<?xml version="1.0" encoding="utf-8"?>
<!-- Generator: Adobe Illustrator 27.0.0, SVG Export Plug-In . SVG Version: 6.00 Build 0)  -->
<svg version="1.1" id="Layer_1" xmlns="http://www.w3.org/2000/svg" xmlns:xlink="http://www.w3.org/1999/xlink" x="0px" y="0px"
	 viewBox="0 0 137.9 54" style="enable-background:new 0 0 137.9 54;" xml:space="preserve">
<g>
	<path d="M0,0h21.8v0.5c-3.3,0-4.9,2.2-4.9,6.6v39.8c0,4.3,1.5,6.6,4.9,6.6V54H0v-0.5c3.4,0,4.9-2.2,4.9-6.6V7.1
		c0-4.3-1.4-6.6-4.9-6.6V0z"/>
	<path d="M20.9,0h21.8v0.5c-3.3,0-4.9,2.2-4.9,6.6v39.8c0,4.3,1.5,6.6,4.9,6.6V54H20.9v-0.5c3.4,0,4.9-2.2,4.9-6.6V7.1
		c0-4.3-1.4-6.6-4.9-6.6V0z"/>
	<path d="M41.8,0h21.8v0.5c-3.3,0-4.9,2.2-4.9,6.6v39.8c0,4.3,0.1,6.6,3.4,6.6V54H41.8v-0.5c3.4,0,4.9-2.2,4.9-6.6V7.1
		c0-4.3-1.4-6.6-4.9-6.6V0z"/>
	<path d="M85.9,53.5c1.5,0,3.4-1.2,3.4-3.2c0-1.7-0.7-3.9-1.4-5.4l-6.4-13c-5.6,10.3-6.1,16.5-6.1,18.3s1,3.4,2.6,3.4V54H62.1v-0.5
		C66.2,53.5,75,40,80,28.8l-11.1-23c-1.8-3.8-3.2-4.9-5.4-5.3V0h22.6v0.5c-1.5,0-3.3,1.2-3.3,3.2c0,1.7,0.7,3.9,1.4,5.4l4.8,10
		c4.4-8.3,5.8-14,5.8-15.7c0-1.8-0.9-3-2.5-3V0h14.4v0.5c-4,0-12.3,12.1-16.5,21.2L103,48.2c1.9,3.8,3.5,5.3,5.9,5.3V54H85.9
		L85.9,53.5L85.9,53.5z"/>
	<path d="M106.6,0h21.9v0.5c-2.1,0-4.4,2.3-4.4,7.3v44.1c8.3,0,11.5-5.5,13.3-11.9h0.5v14H109v-0.5c3.4,0,2.6-2.2,2.6-6.6V7.1
		c0-4.3-1.6-6.6-5-6.6C106.6,0.5,106.6,0,106.6,0z"/>
</g>
</svg>
