<?xml version="1.0" encoding="UTF-8"?><svg id="b" xmlns="http://www.w3.org/2000/svg" width="618.67" height="188.31" viewBox="0 0 618.67 188.31"><g id="c"><g><g><path d="M0,0H30.29l7.53,35.5c2.46,11.3,5.07,28.84,5.07,28.84h.29s2.75-15.5,5.36-27.39L56.51,0h27.39l7.97,36.66c2.61,12.03,5.22,27.68,5.22,27.68h.29s2.75-17.53,5.22-29.13L110.13,0h31.01l-27.24,103.61h-30.58l-9.27-43.91c-1.88-8.98-3.62-20.14-3.62-20.14h-.29s-1.74,11.16-3.62,20.14l-8.98,43.91H26.52L0,0Z"/><path d="M132.88,66.8c0-22.46,15.94-39.27,40.57-39.27s40.28,16.81,40.28,39.27-15.65,39.12-40.28,39.12-40.57-16.66-40.57-39.12Zm53.03,0c0-12.46-4.35-20.87-12.75-20.87s-12.46,8.4-12.46,20.87,4.06,20.87,12.46,20.87,12.75-8.4,12.75-20.87Z"/><path d="M246.63,40.86h.43c5.94-9.27,13.04-12.75,22.46-12.75,2.17,0,3.62,.29,4.49,.72v23.33h-.58c-16.08-2.75-25.5,4.49-25.5,21.16v30.28h-27.39V29.71h26.08v11.16Z"/><path d="M313.13,77.09l-5.65,6.23v20.29h-26.95V0h26.95V51.73l17.82-22.03h30.72l-24.63,27.24,27.53,46.66h-31.01l-14.78-26.52Z"/><path d="M352.92,0h89.26V25.79h-29.71V103.61h-30.29V25.79h-29.27V0Z"/><path d="M466.67,40.86h.44c5.94-9.27,13.04-12.75,22.46-12.75,2.17,0,3.62,.29,4.49,.72v23.33h-.58c-16.08-2.75-25.5,4.49-25.5,21.16v30.28h-27.39V29.71h26.08v11.16Z"/><path d="M500.58,0h27.39V20.72h-27.39V0Zm0,29.71h27.39V103.61h-27.39V29.71Z"/><path d="M537.82,29.71h26.08v8.69h.44c5.36-6.96,12.9-11.01,23.04-11.01,19.85,0,31.3,17.68,31.3,39.12,0,24.2-12.75,39.56-32.46,39.56-8.84,0-15.65-3.33-20.58-9.42h-.44v31.44h-27.39V29.71Zm53.04,37.97c0-11.3-4.64-18.4-12.75-18.4s-13.91,7.82-13.91,18.4,5.51,18.26,13.91,18.26,12.75-6.96,12.75-18.26Z"/></g><g><path d="M8.37,163.58c0-9.18,5.22-15.55,12.57-15.55,4.13,0,6.71,1.89,8.32,4.36h.17v-15.15h7.8v41.03h-7.52v-3.84h-.11c-1.72,2.81-4.65,4.71-8.78,4.71-7.4,0-12.45-6.03-12.45-15.55Zm21.23,.17c0-5.62-1.84-9.41-6.83-9.41-4.3,0-6.48,3.79-6.48,9.24s2.24,9.01,6.26,9.01c4.65,0,7.06-3.44,7.06-8.84Z"/><path d="M59.9,175h-.11c-1.49,2.24-3.61,3.96-8.66,3.96-6.03,0-10.27-3.16-10.27-9.01,0-6.48,5.28-8.55,11.82-9.47,4.88-.69,7.12-1.09,7.12-3.33s-1.66-3.5-4.93-3.5c-3.67,0-5.45,1.32-5.68,4.13h-6.94c.23-5.16,4.07-9.7,12.68-9.7s12.39,3.96,12.39,10.85v14.98c0,2.24,.34,3.56,1.03,4.07v.29h-7.52c-.46-.57-.75-1.95-.92-3.27Zm.06-7.12v-4.42c-1.38,.8-3.5,1.26-5.45,1.72-4.07,.92-6.08,1.84-6.08,4.59s1.84,3.73,4.59,3.73c4.48,0,6.94-2.75,6.94-5.62Z"/><path d="M79.87,152.85h.17c2.01-3.16,4.71-4.82,8.72-4.82,6.08,0,10.16,4.59,10.16,11.02v19.22h-7.8v-18.08c0-3.16-1.84-5.39-5.11-5.39-3.44,0-5.97,2.75-5.97,6.77v16.7h-7.8v-29.44h7.63v4.02Z"/><path d="M102.3,163.58c0-8.78,5.74-15.55,14.69-15.55,7.63,0,12.34,4.42,13.37,10.79h-7.63c-.52-2.58-2.52-4.53-5.39-4.53-4.71,0-7.12,3.61-7.12,9.3s2.24,9.3,7,9.3c3.16,0,5.39-1.66,5.91-4.99h7.52c-.52,6.26-5.39,11.25-13.26,11.25-9.3,0-15.09-6.77-15.09-15.55Z"/><path d="M132.59,163.52c0-8.72,5.91-15.49,14.52-15.49,9.47,0,14.52,7.23,14.52,17.73h-21.35c.57,4.53,3.1,7.34,7.52,7.34,3.04,0,4.82-1.38,5.68-3.61h7.69c-1.09,5.22-5.74,9.64-13.31,9.64-9.75,0-15.26-6.83-15.26-15.61Zm7.8-3.16h13.08c-.23-3.73-2.7-6.31-6.25-6.31-4.13,0-6.14,2.47-6.83,6.31Z"/><path d="M174.88,148.83h7.52v3.67h.17c1.89-2.58,4.65-4.48,8.66-4.48,7.8,0,12.8,6.37,12.8,15.55s-5.16,15.55-12.74,15.55c-4.13,0-6.83-1.66-8.49-4.19h-.11v12.97h-7.8v-39.08Zm21.23,14.98c0-5.57-1.95-9.47-6.77-9.47s-6.83,4.19-6.83,9.47,2.47,8.84,7.12,8.84c3.96,0,6.48-3.27,6.48-8.84Z"/><path d="M225.26,175h-.11c-1.49,2.24-3.61,3.96-8.66,3.96-6.03,0-10.27-3.16-10.27-9.01,0-6.48,5.28-8.55,11.82-9.47,4.88-.69,7.12-1.09,7.12-3.33s-1.66-3.5-4.93-3.5c-3.67,0-5.45,1.32-5.68,4.13h-6.94c.23-5.16,4.07-9.7,12.68-9.7s12.39,3.96,12.39,10.85v14.98c0,2.24,.34,3.56,1.03,4.07v.29h-7.52c-.46-.57-.75-1.95-.92-3.27Zm.06-7.12v-4.42c-1.38,.8-3.5,1.26-5.45,1.72-4.07,.92-6.08,1.84-6.08,4.59s1.84,3.73,4.59,3.73c4.48,0,6.94-2.75,6.94-5.62Z"/><path d="M245.11,153.54h.17c1.78-3.33,3.79-5.05,7.23-5.05,.86,0,1.38,.06,1.84,.23v6.83h-.17c-5.11-.52-8.78,2.18-8.78,8.38v14.35h-7.8v-29.44h7.52v4.71Z"/><path d="M256.3,148.83h4.07v-9.18h7.63v9.18h5.05v5.16h-5.05v15.61c0,2.18,1.2,2.93,2.93,2.93,.98,0,2.3-.06,2.3-.06v5.74s-1.78,.12-4.88,.12c-3.79,0-7.98-1.49-7.98-7.06v-17.27h-4.07v-5.16Z"/><path d="M278.27,181.77h2.75c3.1,0,4.36-1.61,4.36-4.02,0-1.61-.57-3.5-2.24-7.98l-7.92-20.94h8.21l4.36,13.26c.92,2.7,1.89,6.43,1.89,6.43h.11s.8-3.73,1.72-6.43l4.13-13.26h7.86l-10.27,30.18c-2.24,6.54-4.42,8.89-10.39,8.89h-4.59v-6.14Z"/><path d="M315.28,156.58h11.3v-11.65h5.97v11.65h11.36v5.74h-11.36v11.65h-5.97v-11.65h-11.3v-5.74Z"/><path d="M358.2,137.24h7.8v41.03h-7.8v-41.03Z"/><path d="M371.16,137.24h7.8v7h-7.8v-7Zm0,11.59h7.8v29.44h-7.8v-29.44Z"/><path d="M383.21,179.13h7.75c.63,1.84,2.3,3.27,5.91,3.27,4.42,0,6.54-2.12,6.54-6.14v-3.21h-.17c-1.72,1.95-3.96,3.44-7.69,3.44-6.54,0-12.97-5.16-12.97-14.06s5.28-14.4,12.74-14.4c3.67,0,6.37,1.43,8.15,3.9h.11v-3.1h7.52v27.2c0,4.13-1.32,6.94-3.5,8.95-2.47,2.3-6.26,3.33-10.62,3.33-8.03,0-12.97-3.44-13.77-9.18Zm20.6-16.87c0-4.3-2.3-7.98-7-7.98-3.96,0-6.6,3.1-6.6,8.03s2.64,7.92,6.66,7.92c4.94,0,6.94-3.61,6.94-7.98Z"/><path d="M423.95,152.68h.17c2.12-3.1,4.53-4.65,8.55-4.65,6.08,0,10.16,4.59,10.16,11.02v19.22h-7.8v-18.08c0-3.16-1.84-5.39-5.11-5.39-3.44,0-5.97,2.75-5.97,6.77v16.7h-7.8v-41.03h7.8v15.44Z"/><path d="M445.35,148.83h4.07v-9.18h7.63v9.18h5.05v5.16h-5.05v15.61c0,2.18,1.21,2.93,2.93,2.93,.97,0,2.3-.06,2.3-.06v5.74s-1.78,.12-4.88,.12c-3.79,0-7.98-1.49-7.98-7.06v-17.27h-4.07v-5.16Z"/><path d="M473.93,168.74h7.23c.52,3.39,2.93,4.88,6.43,4.88s5.39-1.32,5.39-3.39c0-2.81-3.73-3.1-7.75-3.9-5.28-1.03-10.44-2.47-10.44-8.89s5.28-9.41,11.99-9.41c7.75,0,12.05,3.84,12.62,9.75h-7.06c-.34-3.16-2.35-4.3-5.68-4.3-3.04,0-5.05,1.15-5.05,3.27,0,2.52,3.9,2.75,8.09,3.61,4.93,1.03,10.39,2.41,10.39,9.3,0,5.91-5.05,9.47-12.39,9.47-8.55,0-13.31-4.13-13.77-10.39Z"/><path d="M511.39,152.68h.17c2.12-3.1,4.53-4.65,8.55-4.65,6.08,0,10.16,4.59,10.16,11.02v19.22h-7.8v-18.08c0-3.16-1.84-5.39-5.11-5.39-3.44,0-5.97,2.75-5.97,6.77v16.7h-7.8v-41.03h7.8v15.44Z"/><path d="M533.65,163.58c0-8.78,6.26-15.55,15.38-15.55s15.38,6.77,15.38,15.55-6.26,15.55-15.38,15.55-15.38-6.77-15.38-15.55Zm22.84,0c0-5.74-2.7-9.64-7.46-9.64s-7.46,3.9-7.46,9.64,2.64,9.58,7.46,9.58,7.46-3.84,7.46-9.58Z"/><path d="M564.87,148.83h7.75l3.56,13.66c.63,2.41,1.32,5.51,1.32,5.51h.12s.63-3.16,1.26-5.57l3.67-13.6h6.66l3.84,13.6c.63,2.47,1.38,5.57,1.38,5.57h.12s.69-3.1,1.32-5.51l3.73-13.66h7.57l-8.78,29.44h-7.12l-3.9-14.46c-.63-2.35-1.32-5.11-1.32-5.11h-.12s-.75,2.75-1.38,5.11l-4.02,14.46h-7.06l-8.61-29.44Z"/></g></g></g></svg>