<?xml version="1.0" encoding="UTF-8"?><svg id="b" xmlns="http://www.w3.org/2000/svg" width="612" height="245.6" viewBox="0 0 612 245.6"><g id="c"><g><g><path d="M0,0H29.96l7.45,35.12c2.44,11.18,5.02,28.52,5.02,28.52h.29s2.72-15.34,5.3-27.09L55.9,0h27.09l7.88,36.27c2.58,11.9,5.16,27.38,5.16,27.38h.29s2.72-17.34,5.16-28.81L108.94,0h30.68l-26.95,102.49h-30.25l-9.17-43.43c-1.86-8.89-3.58-19.92-3.58-19.92h-.29s-1.72,11.04-3.58,19.92l-8.89,43.43H26.23L0,0Z"/><path d="M131.44,66.08c0-22.22,15.77-38.85,40.14-38.85s39.85,16.63,39.85,38.85-15.48,38.7-39.85,38.7-40.14-16.48-40.14-38.7Zm52.46,0c0-12.33-4.3-20.64-12.61-20.64s-12.33,8.31-12.33,20.64,4.01,20.64,12.33,20.64,12.61-8.31,12.61-20.64Z"/><path d="M243.97,40.42h.43c5.88-9.17,12.9-12.61,22.22-12.61,2.15,0,3.58,.29,4.44,.72v23.08h-.57c-15.91-2.72-25.23,4.44-25.23,20.93v29.96h-27.09V29.38h25.8v11.04Z"/><path d="M309.76,76.26l-5.59,6.16v20.07h-26.66V0h26.66V51.17l17.63-21.79h30.39l-24.37,26.95,27.23,46.16h-30.68l-14.62-26.23Z"/><path d="M349.12,0h88.3V25.51h-29.38V102.49h-29.96V25.51h-28.96V0Z"/><path d="M461.64,40.42h.43c5.88-9.17,12.9-12.61,22.22-12.61,2.15,0,3.58,.29,4.44,.72v23.08h-.57c-15.91-2.72-25.23,4.44-25.23,20.93v29.96h-27.09V29.38h25.8v11.04Z"/><path d="M495.18,0h27.09V20.5h-27.09V0Zm0,29.38h27.09V102.49h-27.09V29.38Z"/><path d="M532.02,29.38h25.8v8.6h.43c5.3-6.88,12.76-10.89,22.79-10.89,19.64,0,30.96,17.49,30.96,38.7,0,23.94-12.61,39.13-32.11,39.13-8.74,0-15.48-3.3-20.35-9.32h-.43v31.11h-27.09V29.38Zm52.46,37.56c0-11.18-4.59-18.2-12.61-18.2s-13.76,7.74-13.76,18.2,5.45,18.06,13.76,18.06,12.61-6.88,12.61-18.06Z"/></g><g><path d="M0,168.91c0-9.38,5.34-15.89,12.84-15.89,4.22,0,6.86,1.94,8.5,4.46h.18v-15.48h7.98v41.93h-7.68v-3.93h-.12c-1.76,2.87-4.75,4.81-8.97,4.81-7.57,0-12.73-6.16-12.73-15.89Zm21.7,.18c0-5.75-1.88-9.62-6.98-9.62-4.4,0-6.63,3.87-6.63,9.44s2.29,9.21,6.39,9.21c4.75,0,7.21-3.52,7.21-9.03Z"/><path d="M52.66,180.58h-.12c-1.52,2.29-3.69,4.05-8.86,4.05-6.16,0-10.5-3.23-10.5-9.21,0-6.63,5.4-8.74,12.08-9.68,4.98-.7,7.27-1.11,7.27-3.4s-1.7-3.58-5.04-3.58c-3.75,0-5.57,1.35-5.81,4.22h-7.1c.23-5.28,4.16-9.91,12.96-9.91s12.67,4.05,12.67,11.08v15.31c0,2.29,.35,3.64,1.06,4.16v.29h-7.68c-.47-.59-.76-1.99-.94-3.34Zm.06-7.27v-4.52c-1.41,.82-3.58,1.29-5.57,1.76-4.16,.94-6.22,1.88-6.22,4.69s1.88,3.81,4.69,3.81c4.57,0,7.1-2.82,7.1-5.75Z"/><path d="M73.07,157.94h.18c2.05-3.23,4.81-4.93,8.91-4.93,6.22,0,10.38,4.69,10.38,11.26v19.65h-7.98v-18.47c0-3.23-1.88-5.51-5.22-5.51-3.52,0-6.1,2.82-6.1,6.92v17.07h-7.98v-30.09h7.8v4.11Z"/><path d="M96,168.91c0-8.97,5.86-15.89,15.01-15.89,7.8,0,12.61,4.52,13.67,11.03h-7.8c-.53-2.64-2.58-4.63-5.51-4.63-4.81,0-7.27,3.69-7.27,9.5s2.29,9.5,7.16,9.5c3.23,0,5.51-1.7,6.04-5.1h7.68c-.53,6.39-5.51,11.5-13.55,11.5-9.5,0-15.42-6.92-15.42-15.89Z"/><path d="M126.96,168.85c0-8.91,6.04-15.83,14.84-15.83,9.68,0,14.84,7.39,14.84,18.12h-21.82c.59,4.63,3.17,7.51,7.68,7.51,3.11,0,4.93-1.41,5.81-3.69h7.86c-1.11,5.34-5.86,9.85-13.61,9.85-9.97,0-15.6-6.98-15.6-15.95Zm7.98-3.23h13.37c-.23-3.81-2.76-6.45-6.39-6.45-4.22,0-6.28,2.52-6.98,6.45Z"/><path d="M170.18,153.83h7.68v3.75h.18c1.94-2.64,4.75-4.57,8.86-4.57,7.98,0,13.08,6.51,13.08,15.89s-5.28,15.89-13.02,15.89c-4.22,0-6.98-1.7-8.68-4.28h-.12v13.25h-7.98v-39.94Zm21.7,15.31c0-5.69-1.99-9.68-6.92-9.68s-6.98,4.28-6.98,9.68,2.52,9.03,7.27,9.03c4.05,0,6.63-3.34,6.63-9.03Z"/><path d="M221.67,180.58h-.12c-1.52,2.29-3.69,4.05-8.86,4.05-6.16,0-10.5-3.23-10.5-9.21,0-6.63,5.4-8.74,12.08-9.68,4.98-.7,7.27-1.11,7.27-3.4s-1.7-3.58-5.04-3.58c-3.75,0-5.57,1.35-5.81,4.22h-7.1c.23-5.28,4.16-9.91,12.96-9.91s12.67,4.05,12.67,11.08v15.31c0,2.29,.35,3.64,1.06,4.16v.29h-7.68c-.47-.59-.76-1.99-.94-3.34Zm.06-7.27v-4.52c-1.41,.82-3.58,1.29-5.57,1.76-4.16,.94-6.22,1.88-6.22,4.69s1.88,3.81,4.69,3.81c4.57,0,7.1-2.82,7.1-5.75Z"/><path d="M241.96,158.64h.18c1.82-3.4,3.87-5.16,7.39-5.16,.88,0,1.41,.06,1.88,.23v6.98h-.18c-5.22-.53-8.97,2.23-8.97,8.56v14.66h-7.98v-30.09h7.68v4.81Z"/><path d="M253.4,153.83h4.16v-9.38h7.8v9.38h5.16v5.28h-5.16v15.95c0,2.23,1.23,2.99,2.99,2.99,1,0,2.35-.06,2.35-.06v5.86s-1.82,.12-4.99,.12c-3.87,0-8.15-1.53-8.15-7.21v-17.65h-4.16v-5.28Z"/><path d="M275.86,187.5h2.82c3.17,0,4.46-1.64,4.46-4.11,0-1.64-.59-3.58-2.29-8.15l-8.09-21.41h8.39l4.46,13.55c.94,2.76,1.94,6.57,1.94,6.57h.12s.82-3.81,1.76-6.57l4.22-13.55h8.03l-10.5,30.85c-2.29,6.69-4.52,9.09-10.62,9.09h-4.69v-6.28Z"/><path d="M313.68,161.75h11.55v-11.91h6.1v11.91h11.61v5.87h-11.61v11.91h-6.1v-11.91h-11.55v-5.87Z"/><path d="M357.54,141.99h7.98v41.93h-7.98v-41.93Z"/><path d="M370.8,141.99h7.98v7.15h-7.98v-7.15Zm0,11.85h7.98v30.09h-7.98v-30.09Z"/><path d="M383.11,184.8h7.92c.65,1.88,2.35,3.34,6.04,3.34,4.52,0,6.69-2.17,6.69-6.28v-3.28h-.18c-1.76,1.99-4.05,3.52-7.86,3.52-6.69,0-13.26-5.28-13.26-14.37s5.4-14.72,13.02-14.72c3.75,0,6.51,1.47,8.33,3.99h.12v-3.17h7.68v27.8c0,4.22-1.35,7.1-3.58,9.15-2.52,2.35-6.39,3.4-10.85,3.4-8.21,0-13.26-3.52-14.08-9.38Zm21.06-17.24c0-4.4-2.35-8.15-7.15-8.15-4.05,0-6.74,3.17-6.74,8.21s2.7,8.09,6.8,8.09c5.04,0,7.1-3.69,7.1-8.15Z"/><path d="M424.75,157.76h.18c2.17-3.17,4.63-4.75,8.74-4.75,6.22,0,10.38,4.69,10.38,11.26v19.65h-7.98v-18.47c0-3.23-1.88-5.51-5.22-5.51-3.52,0-6.1,2.82-6.1,6.92v17.07h-7.98v-41.93h7.98v15.78Z"/><path d="M446.62,153.83h4.16v-9.38h7.8v9.38h5.16v5.28h-5.16v15.95c0,2.23,1.23,2.99,2.99,2.99,1,0,2.35-.06,2.35-.06v5.86s-1.82,.12-4.99,.12c-3.87,0-8.15-1.53-8.15-7.21v-17.65h-4.16v-5.28Z"/><path d="M475.83,174.18h7.39c.53,3.46,2.99,4.98,6.57,4.98s5.51-1.35,5.51-3.46c0-2.87-3.81-3.17-7.92-3.99-5.4-1.06-10.67-2.52-10.67-9.09s5.39-9.62,12.26-9.62c7.92,0,12.32,3.93,12.9,9.97h-7.21c-.35-3.23-2.41-4.4-5.81-4.4-3.11,0-5.16,1.17-5.16,3.34,0,2.58,3.99,2.82,8.27,3.69,5.04,1.06,10.62,2.46,10.62,9.5,0,6.04-5.16,9.68-12.67,9.68-8.74,0-13.61-4.22-14.08-10.62Z"/><path d="M514.12,157.76h.18c2.17-3.17,4.63-4.75,8.74-4.75,6.22,0,10.38,4.69,10.38,11.26v19.65h-7.98v-18.47c0-3.23-1.88-5.51-5.22-5.51-3.52,0-6.1,2.82-6.1,6.92v17.07h-7.98v-41.93h7.98v15.78Z"/><path d="M536.87,168.91c0-8.97,6.39-15.89,15.72-15.89s15.72,6.92,15.72,15.89-6.39,15.89-15.72,15.89-15.72-6.92-15.72-15.89Zm23.34,0c0-5.86-2.76-9.85-7.62-9.85s-7.62,3.99-7.62,9.85,2.7,9.79,7.62,9.79,7.62-3.93,7.62-9.79Z"/><path d="M568.78,153.83h7.92l3.64,13.96c.65,2.46,1.35,5.63,1.35,5.63h.12s.65-3.23,1.29-5.69l3.75-13.9h6.8l3.93,13.9c.65,2.52,1.41,5.69,1.41,5.69h.12s.7-3.17,1.35-5.63l3.81-13.96h7.74l-8.97,30.09h-7.27l-3.99-14.78c-.65-2.4-1.35-5.22-1.35-5.22h-.12s-.76,2.82-1.41,5.22l-4.11,14.78h-7.21l-8.8-30.09Z"/></g><g><path d="M0,218.84H5.15v2.71h.12c1.1-1.85,3.07-3.26,5.86-3.26,2.55,0,4.6,1.42,5.58,3.54h.08c1.38-2.2,3.5-3.54,6.05-3.54,4.24,0,6.64,2.75,6.64,7.15v13.56h-5.34v-12.66c0-2.28-1.14-3.46-3.11-3.46-2.24,0-3.62,1.73-3.62,4.4v11.71h-5.34v-12.66c0-2.28-1.14-3.46-3.11-3.46-2.16,0-3.62,1.73-3.62,4.4v11.71H0v-20.16Z"/><path d="M44.85,236.76h-.08c-1.02,1.53-2.48,2.71-5.93,2.71-4.13,0-7.04-2.16-7.04-6.17,0-4.44,3.62-5.86,8.1-6.48,3.34-.47,4.87-.75,4.87-2.28,0-1.45-1.14-2.4-3.38-2.4-2.52,0-3.73,.9-3.89,2.83h-4.76c.16-3.54,2.79-6.64,8.69-6.64s8.49,2.71,8.49,7.43v10.26c0,1.53,.24,2.44,.71,2.79v.2h-5.15c-.31-.39-.51-1.34-.63-2.24Zm.04-4.87v-3.03c-.94,.55-2.4,.86-3.73,1.18-2.79,.63-4.17,1.26-4.17,3.14s1.26,2.56,3.14,2.56c3.07,0,4.76-1.89,4.76-3.85Z"/><path d="M53.54,241.4h1.89c2.12,0,2.99-1.1,2.99-2.75,0-1.1-.39-2.4-1.53-5.46l-5.42-14.35h5.62l2.99,9.08c.63,1.85,1.3,4.4,1.3,4.4h.08s.55-2.55,1.18-4.4l2.83-9.08h5.38l-7.04,20.67c-1.53,4.48-3.03,6.09-7.11,6.09h-3.14v-4.21Z"/><path d="M84.67,220.21h-6.09v-3.54c3.3-.12,6.25-1.34,6.8-4.79h4.68v27.12h-5.38v-18.79Z"/><path d="M100.43,228.31c3.38-2.67,7.07-4.56,7.07-8.02,0-2.52-1.34-4.21-3.73-4.21-2.71,0-4.32,1.97-4.4,5.46h-5.03c0-6.13,3.14-10.02,9.55-10.02,5.86,0,9.16,3.97,9.16,8.61,0,5.07-3.46,7.47-6.76,9.67-2.08,1.34-4.52,3.07-5.42,4.79h12.42v4.4h-19.34c.2-5.15,3.42-8.29,6.49-10.69Z"/><path d="M115.88,243.6c1.53-.79,2.83-2.16,2.83-4.6h-2.87v-5.7h5.74v5.38c0,4.01-2.67,6.29-5.7,6.84v-1.93Z"/><path d="M137.1,228.31c3.38-2.67,7.07-4.56,7.07-8.02,0-2.52-1.34-4.21-3.73-4.21-2.71,0-4.32,1.97-4.4,5.46h-5.03c0-6.13,3.14-10.02,9.55-10.02,5.86,0,9.16,3.97,9.16,8.61,0,5.07-3.46,7.47-6.76,9.67-2.08,1.34-4.52,3.07-5.42,4.79h12.42v4.4h-19.34c.2-5.15,3.42-8.29,6.49-10.69Z"/><path d="M152.27,225.56c0-8.61,4.44-14.07,11.28-14.07s11.2,5.42,11.2,14.07-4.24,14.07-11.24,14.07-11.24-5.5-11.24-14.07Zm16.9,0c0-5.7-1.65-9.51-5.62-9.51s-5.7,3.77-5.7,9.51,1.69,9.51,5.7,9.51,5.62-3.73,5.62-9.51Z"/><path d="M183.25,228.31c3.38-2.67,7.07-4.56,7.07-8.02,0-2.52-1.34-4.21-3.73-4.21-2.71,0-4.32,1.97-4.4,5.46h-5.03c0-6.13,3.14-10.02,9.55-10.02,5.86,0,9.16,3.97,9.16,8.61,0,5.07-3.46,7.47-6.76,9.67-2.08,1.34-4.52,3.07-5.42,4.79h12.42v4.4h-19.34c.2-5.15,3.42-8.29,6.49-10.69Z"/><path d="M197.83,229.84h5.11c.2,3.22,1.61,5.46,5.31,5.46,2.99,0,4.76-1.61,4.76-4.36,0-2.59-1.65-4.17-4.95-4.17h-1.65v-4.05h1.53c2.55,0,4.36-1.3,4.36-3.58,0-2.12-1.45-3.54-3.81-3.54-3.07,0-4.56,2-4.68,4.79h-5.11c.2-5.31,3.54-8.88,9.79-8.88,5.62,0,9.24,2.79,9.24,7.27,0,3.03-1.93,4.79-4.6,5.66v.08c3.42,.83,5.46,3.03,5.46,6.76,0,5.58-4.6,8.29-10.14,8.29-6.96,0-10.53-3.85-10.61-9.75Z"/><path d="M227.47,226.97h10.65v4.6h-10.65v-4.6Z"/><path d="M246.61,218.84h2.79v-6.29h5.23v6.29h3.46v3.54h-3.46v10.69c0,1.49,.83,2,2,2,.67,0,1.57-.04,1.57-.04v3.93s-1.22,.08-3.34,.08c-2.59,0-5.46-1.02-5.46-4.83v-11.83h-2.79v-3.54Z"/><path d="M265.99,222.06h.12c1.22-2.28,2.59-3.46,4.95-3.46,.59,0,.94,.04,1.26,.16v4.68h-.12c-3.5-.35-6.01,1.49-6.01,5.74v9.83h-5.34v-20.16h5.15v3.22Z"/><path d="M286.11,236.76h-.08c-1.02,1.53-2.48,2.71-5.93,2.71-4.13,0-7.04-2.16-7.04-6.17,0-4.44,3.62-5.86,8.1-6.48,3.34-.47,4.87-.75,4.87-2.28,0-1.45-1.14-2.4-3.38-2.4-2.52,0-3.73,.9-3.89,2.83h-4.76c.16-3.54,2.79-6.64,8.69-6.64s8.49,2.71,8.49,7.43v10.26c0,1.53,.24,2.44,.71,2.79v.2h-5.15c-.31-.39-.51-1.34-.63-2.24Zm.04-4.87v-3.03c-.94,.55-2.4,.86-3.73,1.18-2.79,.63-4.17,1.26-4.17,3.14s1.26,2.56,3.14,2.56c3.07,0,4.76-1.89,4.76-3.85Z"/><path d="M299.79,221.59h.12c1.38-2.16,3.22-3.3,5.97-3.3,4.17,0,6.96,3.14,6.96,7.55v13.17h-5.34v-12.38c0-2.16-1.26-3.69-3.5-3.69-2.36,0-4.09,1.89-4.09,4.64v11.44h-5.34v-20.16h5.23v2.75Z"/><path d="M314.89,232.48h4.95c.35,2.32,2,3.34,4.4,3.34s3.69-.9,3.69-2.32c0-1.93-2.56-2.12-5.31-2.67-3.62-.71-7.15-1.69-7.15-6.09s3.62-6.45,8.21-6.45c5.31,0,8.25,2.63,8.65,6.68h-4.83c-.24-2.16-1.61-2.95-3.89-2.95-2.08,0-3.46,.79-3.46,2.24,0,1.73,2.67,1.89,5.54,2.48,3.38,.71,7.11,1.65,7.11,6.37,0,4.05-3.46,6.48-8.49,6.48-5.86,0-9.12-2.83-9.43-7.11Z"/><path d="M341.81,218.84h5.15v2.52h.12c1.3-1.77,3.18-3.07,5.93-3.07,5.34,0,8.76,4.36,8.76,10.65s-3.54,10.65-8.72,10.65c-2.83,0-4.68-1.14-5.82-2.87h-.08v8.88h-5.34v-26.77Zm14.54,10.26c0-3.81-1.34-6.49-4.64-6.49s-4.68,2.87-4.68,6.49,1.69,6.05,4.87,6.05c2.71,0,4.44-2.24,4.44-6.05Z"/><path d="M363.27,228.9c0-5.97,4.05-10.61,9.94-10.61,6.48,0,9.94,4.95,9.94,12.14h-14.62c.39,3.11,2.12,5.03,5.15,5.03,2.08,0,3.3-.94,3.89-2.48h5.27c-.75,3.58-3.93,6.6-9.12,6.6-6.68,0-10.45-4.68-10.45-10.69Zm5.35-2.16h8.96c-.16-2.55-1.85-4.32-4.28-4.32-2.83,0-4.21,1.69-4.68,4.32Z"/><path d="M384.65,228.94c0-6.01,3.93-10.65,10.06-10.65,5.23,0,8.45,3.03,9.16,7.39h-5.23c-.35-1.77-1.73-3.11-3.69-3.11-3.22,0-4.87,2.48-4.87,6.37s1.53,6.37,4.79,6.37c2.16,0,3.69-1.14,4.05-3.42h5.15c-.35,4.28-3.69,7.7-9.08,7.7-6.37,0-10.34-4.64-10.34-10.65Z"/><path d="M405.41,228.94c0-6.01,4.28-10.65,10.53-10.65s10.53,4.64,10.53,10.65-4.28,10.65-10.53,10.65-10.53-4.64-10.53-10.65Zm15.64,0c0-3.93-1.85-6.6-5.11-6.6s-5.11,2.67-5.11,6.6,1.81,6.56,5.11,6.56,5.11-2.63,5.11-6.56Z"/><path d="M427.69,232.48h4.95c.35,2.32,2,3.34,4.4,3.34s3.69-.9,3.69-2.32c0-1.93-2.56-2.12-5.31-2.67-3.62-.71-7.15-1.69-7.15-6.09s3.62-6.45,8.21-6.45c5.31,0,8.25,2.63,8.65,6.68h-4.83c-.24-2.16-1.61-2.95-3.89-2.95-2.08,0-3.46,.79-3.46,2.24,0,1.73,2.67,1.89,5.54,2.48,3.38,.71,7.11,1.65,7.11,6.37,0,4.05-3.46,6.48-8.49,6.48-5.86,0-9.12-2.83-9.43-7.11Z"/><path d="M447.74,243.6c1.53-.79,2.83-2.16,2.83-4.6h-2.87v-5.7h5.74v5.38c0,4.01-2.67,6.29-5.7,6.84v-1.93Z"/><path d="M468.42,236.48h-.08v2.52h-5.15v-28.1h5.34v10.38h.12c1.1-1.69,2.83-2.99,5.62-2.99,5.07,0,8.69,4.36,8.69,10.65s-3.46,10.65-8.53,10.65c-2.83,0-4.83-1.22-6.01-3.11Zm9.12-7.55c0-3.73-1.49-6.33-4.48-6.33-3.38,0-4.64,2.71-4.64,6.45s1.85,6.05,4.83,6.05c2.75,0,4.28-2.28,4.28-6.17Z"/><path d="M490.58,222.06h.12c1.22-2.28,2.59-3.46,4.95-3.46,.59,0,.94,.04,1.26,.16v4.68h-.12c-3.5-.35-6.01,1.49-6.01,5.74v9.83h-5.34v-20.16h5.15v3.22Z"/><path d="M497.66,228.94c0-6.01,4.28-10.65,10.53-10.65s10.53,4.64,10.53,10.65-4.28,10.65-10.53,10.65-10.53-4.64-10.53-10.65Zm15.64,0c0-3.93-1.85-6.6-5.11-6.6s-5.11,2.67-5.11,6.6,1.81,6.56,5.11,6.56,5.11-2.63,5.11-6.56Z"/><path d="M520.22,228.94c0-6.01,4.28-10.65,10.53-10.65s10.53,4.64,10.53,10.65-4.28,10.65-10.53,10.65-10.53-4.64-10.53-10.65Zm15.64,0c0-3.93-1.85-6.6-5.11-6.6s-5.11,2.67-5.11,6.6,1.81,6.56,5.11,6.56,5.11-2.63,5.11-6.56Z"/><path d="M551.39,229.8l-2.32,2.4v6.8h-5.31v-28.1h5.31v15.56l7.15-7.63h6.41l-7.43,7.66,8.33,12.5h-6.48l-5.66-9.2Z"/><path d="M565.31,210.9h5.34v28.1h-5.34v-28.1Z"/><path d="M574.62,241.4h1.89c2.12,0,2.99-1.1,2.99-2.75,0-1.1-.39-2.4-1.53-5.46l-5.42-14.35h5.62l2.99,9.08c.63,1.85,1.3,4.4,1.3,4.4h.08s.55-2.55,1.18-4.4l2.83-9.08h5.38l-7.04,20.67c-1.53,4.48-3.03,6.09-7.11,6.09h-3.14v-4.21Z"/><path d="M598.95,221.59h.12c1.38-2.16,3.22-3.3,5.97-3.3,4.17,0,6.96,3.14,6.96,7.55v13.17h-5.34v-12.38c0-2.16-1.26-3.69-3.5-3.69-2.36,0-4.09,1.89-4.09,4.64v11.44h-5.34v-20.16h5.23v2.75Z"/></g></g></g></svg>