<?xml version="1.0" encoding="UTF-8"?><svg id="b" xmlns="http://www.w3.org/2000/svg" width="407.24" height="187.62" viewBox="0 0 407.24 187.62"><g id="c"><g><rect width="6.51" height="140.83" style="fill:#1a1a1a;"/><rect x="12.5" width="4.98" height="140.83" style="fill:#1a1a1a;"/><rect x="25.07" width="14.47" height="140.83" style="fill:#1a1a1a;"/><rect x="48.79" width="9.25" height="140.83" style="fill:#1a1a1a;"/><rect x="71.08" width="4.51" height="140.83" style="fill:#1a1a1a;"/><rect x="85.54" width="4.03" height="140.83" style="fill:#1a1a1a;"/><rect x="99.06" width="8.3" height="140.83" style="fill:#1a1a1a;"/><rect x="112.58" width="12.81" height="140.83" style="fill:#1a1a1a;"/><rect x="135.58" width="4.74" height="140.83" style="fill:#1a1a1a;"/><rect x="148.62" width="9.01" height="140.83" style="fill:#1a1a1a;"/><rect x="171.86" width="8.54" height="140.83" style="fill:#1a1a1a;"/><rect x="186.23" width="6.37" height="140.83" style="fill:#1a1a1a;"/><rect x="200.2" width="6.18" height="140.83" style="fill:#1a1a1a;"/><rect x="212.89" width="12.57" height="140.83" style="fill:#1a1a1a;"/><rect x="233.85" width="7.16" height="140.83" style="fill:#1a1a1a;"/><rect x="249.17" width="4.27" height="140.83" style="fill:#1a1a1a;"/><rect x="266.34" width="11.43" height="140.83" style="fill:#1a1a1a;"/><rect x="290.2" width="4.03" height="140.83" style="fill:#1a1a1a;"/><rect x="299.92" width="4.03" height="140.83" style="fill:#1a1a1a;"/><rect x="321.74" width="4.74" height="140.83" style="fill:#1a1a1a;"/><rect x="331.46" width="9.01" height="140.83" style="fill:#1a1a1a;"/><rect x="350.2" width="8.06" height="140.83" style="fill:#1a1a1a;"/><rect x="372.25" width="13.75" height="140.83" style="fill:#1a1a1a;"/><rect x="390.75" width="3.79" height="140.83" style="fill:#1a1a1a;"/><rect x="400.11" width="7.13" height="140.83" style="fill:#1a1a1a;"/><g><path d="M102.71,187.08h-3.98v-24.43c-1.62,1.08-4.11,1.62-7.48,1.62v-3.13c4.88,0,7.68-1.88,8.4-5.65h3.06v31.58Z" style="fill:#1a1a1a;"/><path d="M126.83,187.08h-3.98v-24.43c-1.62,1.08-4.11,1.62-7.48,1.62v-3.13c4.88,0,7.68-1.88,8.4-5.65h3.06v31.58Z" style="fill:#1a1a1a;"/><path d="M156.6,187.08h-20.57c0-1.9,.58-3.71,1.75-5.42,1.17-1.72,4.06-4.55,8.67-8.51,1.65-1.08,3.05-2.38,4.2-3.88,1.15-1.51,1.73-3.22,1.73-5.13,0-1.71-.49-3.05-1.48-4.04-.99-.98-2.38-1.47-4.17-1.47-1.55,0-2.88,.49-3.98,1.48-1.1,.99-1.72,2.45-1.86,4.38h-4.14c.24-2.73,1.24-4.91,3.02-6.54,1.78-1.63,4.13-2.45,7.05-2.45,3.09,0,5.47,.83,7.15,2.49,1.68,1.66,2.52,3.74,2.52,6.24,0,2.26-.62,4.25-1.86,5.98-1.24,1.73-2.96,3.49-5.18,5.29-5.18,4.36-7.8,6.99-7.88,7.88h15.01v3.69Z" style="fill:#1a1a1a;"/><path d="M175.07,187.08h-3.98v-24.43c-1.62,1.08-4.11,1.62-7.48,1.62v-3.13c4.88,0,7.68-1.88,8.4-5.65h3.06v31.58Z" style="fill:#1a1a1a;"/><path d="M199.28,170.04c1.88,.49,3.34,1.44,4.37,2.87,1.03,1.43,1.54,3.1,1.54,5.01,0,2.87-.98,5.2-2.94,7-1.96,1.8-4.4,2.69-7.32,2.69s-5.29-.8-7.13-2.4c-1.84-1.6-2.82-3.71-2.96-6.33h4.12c0,1.52,.52,2.83,1.55,3.93,1.04,1.1,2.51,1.65,4.42,1.65s3.35-.6,4.46-1.8c1.11-1.2,1.66-2.75,1.66-4.65s-.57-3.44-1.72-4.49c-1.15-1.05-2.82-1.58-5.04-1.58h-1.53v-3.13h.92c3.87,0,5.81-1.78,5.81-5.34,0-1.55-.42-2.75-1.27-3.59s-2.04-1.26-3.58-1.26c-3.17,0-4.93,1.65-5.29,4.94h-4.12c.3-2.62,1.3-4.62,3.01-6,1.71-1.38,3.81-2.07,6.31-2.07,2.76,0,4.96,.75,6.6,2.26,1.64,1.51,2.46,3.44,2.46,5.81,0,1.33-.36,2.59-1.07,3.77-.71,1.18-1.8,2.08-3.26,2.71Z" style="fill:#1a1a1a;"/><path d="M72.37,155.71c6.54,0,9.81,5.2,9.81,15.61s-3.27,15.54-9.81,15.54-9.79-5.18-9.79-15.54,3.26-15.61,9.79-15.61Zm0,28.09c1.9,0,3.35-.92,4.34-2.75,.99-1.83,1.48-5.08,1.48-9.73s-.49-7.93-1.48-9.79c-.99-1.86-2.43-2.78-4.34-2.78s-3.32,.93-4.31,2.78c-.99,1.86-1.48,5.12-1.48,9.79s.49,7.9,1.48,9.73c.99,1.83,2.43,2.75,4.31,2.75Z" style="fill:#1a1a1a;"/><path d="M231.04,187.08h-20.57c0-1.9,.58-3.71,1.75-5.42,1.17-1.72,4.06-4.55,8.67-8.51,1.65-1.08,3.05-2.38,4.2-3.88,1.15-1.51,1.73-3.22,1.73-5.13,0-1.71-.49-3.05-1.48-4.04-.99-.98-2.38-1.47-4.17-1.47-1.55,0-2.88,.49-3.98,1.48-1.1,.99-1.72,2.45-1.86,4.38h-4.14c.24-2.73,1.24-4.91,3.02-6.54,1.78-1.63,4.13-2.45,7.05-2.45,3.09,0,5.47,.83,7.15,2.49,1.68,1.66,2.52,3.74,2.52,6.24,0,2.26-.62,4.25-1.86,5.98-1.24,1.73-2.96,3.49-5.18,5.29-5.18,4.36-7.8,6.99-7.88,7.88h15.01v3.69Z" style="fill:#1a1a1a;"/><path d="M240.24,168.35c1.54-1.25,3.46-1.88,5.77-1.88,2.57,0,4.82,.91,6.74,2.74,1.92,1.83,2.88,4.27,2.88,7.33s-.96,5.83-2.88,7.93c-1.92,2.1-4.49,3.15-7.71,3.15-2.62,0-4.86-.73-6.73-2.19-1.87-1.46-2.95-3.62-3.25-6.5h4.14c.22,1.87,.87,3.26,1.95,4.17,1.08,.91,2.38,1.37,3.88,1.37,1.93,0,3.49-.73,4.68-2.18,1.19-1.45,1.79-3.25,1.79-5.4s-.61-3.88-1.82-5.14c-1.22-1.26-2.79-1.89-4.72-1.89-2.23,0-4.11,.86-5.65,2.57h-3.13l1.32-16.38h16.64v3.67h-13.22l-.68,8.64Z" style="fill:#1a1a1a;"/><path d="M273.72,170.04c1.88,.49,3.34,1.44,4.36,2.87,1.03,1.43,1.54,3.1,1.54,5.01,0,2.87-.98,5.2-2.94,7-1.96,1.8-4.4,2.69-7.32,2.69s-5.29-.8-7.13-2.4c-1.84-1.6-2.82-3.71-2.96-6.33h4.12c0,1.52,.52,2.83,1.55,3.93,1.04,1.1,2.51,1.65,4.42,1.65s3.35-.6,4.46-1.8c1.11-1.2,1.66-2.75,1.66-4.65s-.57-3.44-1.72-4.49c-1.15-1.05-2.82-1.58-5.04-1.58h-1.53v-3.13h.92c3.87,0,5.81-1.78,5.81-5.34,0-1.55-.42-2.75-1.27-3.59s-2.04-1.26-3.58-1.26c-3.17,0-4.93,1.65-5.29,4.94h-4.12c.3-2.62,1.3-4.62,3.01-6s3.81-2.07,6.31-2.07c2.76,0,4.96,.75,6.6,2.26,1.64,1.51,2.46,3.44,2.46,5.81,0,1.33-.36,2.59-1.07,3.77-.71,1.18-1.8,2.08-3.26,2.71Z" style="fill:#1a1a1a;"/><path d="M297.32,170.77c4.31,1.99,6.47,4.68,6.47,8.07,0,2.6-.95,4.72-2.84,6.34-1.89,1.62-4.36,2.44-7.42,2.44s-5.51-.81-7.4-2.44c-1.89-1.62-2.84-3.74-2.84-6.34,0-3.39,2.16-6.08,6.47-8.07-3.5-2.02-5.25-4.55-5.25-7.58,0-2.24,.83-4.09,2.48-5.53,1.65-1.44,3.83-2.16,6.53-2.16s4.89,.72,6.54,2.16c1.65,1.44,2.47,3.29,2.47,5.53,0,3.03-1.74,5.55-5.22,7.58Zm2.33,8.07c0-1.35-.49-2.51-1.46-3.47-.97-.96-2.53-1.92-4.66-2.86-2.12,.94-3.66,1.89-4.64,2.86-.97,.96-1.46,2.12-1.46,3.47,0,1.76,.56,3.13,1.67,4.13,1.11,1,2.59,1.49,4.42,1.49s3.31-.5,4.44-1.49c1.12-1,1.68-2.37,1.68-4.13Zm-6.12-9.72c3.28-1.47,4.92-3.45,4.92-5.93,0-1.43-.44-2.55-1.31-3.35-.87-.81-2.07-1.21-3.61-1.21s-2.72,.4-3.59,1.21c-.87,.81-1.31,1.93-1.31,3.35,0,2.48,1.63,4.46,4.89,5.93Z" style="fill:#1a1a1a;"/><path d="M312.6,168.35c1.54-1.25,3.46-1.88,5.77-1.88,2.57,0,4.82,.91,6.74,2.74,1.92,1.83,2.88,4.27,2.88,7.33s-.96,5.83-2.88,7.93c-1.92,2.1-4.49,3.15-7.71,3.15-2.62,0-4.86-.73-6.73-2.19-1.87-1.46-2.95-3.62-3.25-6.5h4.14c.22,1.87,.87,3.26,1.95,4.17,1.08,.91,2.38,1.37,3.88,1.37,1.93,0,3.49-.73,4.68-2.18,1.19-1.45,1.79-3.25,1.79-5.4s-.61-3.88-1.82-5.14c-1.22-1.26-2.79-1.89-4.72-1.89-2.23,0-4.11,.86-5.65,2.57h-3.13l1.32-16.38h16.64v3.67h-13.22l-.68,8.64Z" style="fill:#1a1a1a;"/><path d="M343.36,187.08h-3.98v-24.43c-1.62,1.08-4.11,1.62-7.48,1.62v-3.13c4.88,0,7.68-1.88,8.4-5.65h3.06v31.58Z" style="fill:#1a1a1a;"/></g></g></g></svg>