<?xml version="1.0" encoding="UTF-8"?><svg id="b" xmlns="http://www.w3.org/2000/svg" width="683.52" height="238.16" viewBox="0 0 683.52 238.16"><g id="c"><g><path d="M.79,36.35c0-9.67,5.56-16.32,13.78-16.32,4.41,0,6.59,1.63,8.58,4.23h.18V8.61h11.42V51.83h-10.88v-4.29h-.12c-1.99,3.44-5.26,5.32-9.07,5.32-7.98,0-13.9-5.86-13.9-16.5Zm22.85-.18c0-4.41-2.3-7.92-5.68-7.92s-5.56,3.2-5.56,7.92,2.18,8.04,5.56,8.04,5.68-3.57,5.68-8.04Z"/><path d="M57.18,48.44h-.12c-2.06,2.84-5.32,4.17-9.31,4.17-5.92,0-10.27-3.2-10.27-9.25,0-6.83,5.26-8.82,11.18-9.49,6.53-.73,8.28-1.51,8.28-3.45,0-1.69-.79-2.96-3.26-2.96s-3.75,1.45-4.05,3.69h-10.82c.24-6.1,4.96-11.12,14.63-11.12,4.71,0,7.74,.6,10.09,2.06,3.2,1.99,4.77,5.14,4.77,9.25v15.41c0,2.6,.18,3.99,1.15,4.59v.48h-11.24c-.42-.73-.79-1.69-1.03-3.38Zm.06-7.8v-2.72c-1.09,.54-2.48,1.03-4.41,1.45-3.32,.73-4.35,1.69-4.35,3.51,0,2.06,1.69,2.96,3.57,2.96,2.66,0,5.2-1.51,5.2-5.2Z"/><path d="M83.53,25.23h.18c2.48-3.38,5.62-5.2,9.91-5.2,7.13,0,10.82,4.77,10.82,11.85v19.95h-11.42v-17.17c0-3.2-1.33-5.32-4.29-5.32s-4.65,2.54-4.65,5.86v16.62h-11.42V21h10.88v4.23Z"/><path d="M107.04,36.48c0-9.37,6.77-16.38,16.92-16.38,8.7,0,14.51,5.14,15.29,12.33h-11c-.6-2.78-1.93-4.35-4.41-4.35-3.51,0-5.2,3.2-5.2,8.4s1.81,8.28,5.32,8.28c2.78,0,4.17-1.87,4.47-5.38h11c0,7.62-6.23,13.42-15.47,13.42-10.15,0-16.92-6.95-16.92-16.32Z"/><path d="M140.82,36.35c0-9.31,6.71-16.38,16.44-16.38,4.83,0,8.52,1.57,11.36,4.17,3.75,3.45,5.5,8.95,5.38,15.05h-22c.66,3.57,2.6,5.74,6.04,5.74,1.99,0,3.44-.79,4.29-2.3h11.06c-.66,2.78-2.84,5.5-5.86,7.43-2.84,1.81-5.92,2.6-9.85,2.6-10.09,0-16.86-6.89-16.86-16.32Zm11.18-3.2h10.64c-.48-3.45-2.42-5.5-5.14-5.5-3.14,0-4.9,2.12-5.5,5.5Z"/><path d="M188.32,21h10.88v3.63h.18c2.24-2.9,5.38-4.59,9.61-4.59,8.28,0,13.06,7.37,13.06,16.32,0,10.09-5.32,16.5-13.54,16.5-3.69,0-6.53-1.39-8.58-3.93h-.18v13.12h-11.42V21Zm22.12,15.83c0-4.71-1.93-7.68-5.32-7.68s-5.8,3.26-5.8,7.68,2.3,7.62,5.8,7.62,5.32-2.9,5.32-7.62Z"/><path d="M243.2,48.44h-.12c-2.06,2.84-5.32,4.17-9.31,4.17-5.92,0-10.27-3.2-10.27-9.25,0-6.83,5.26-8.82,11.18-9.49,6.53-.73,8.28-1.51,8.28-3.45,0-1.69-.79-2.96-3.26-2.96s-3.75,1.45-4.05,3.69h-10.82c.24-6.1,4.96-11.12,14.63-11.12,4.71,0,7.74,.6,10.09,2.06,3.2,1.99,4.77,5.14,4.77,9.25v15.41c0,2.6,.18,3.99,1.15,4.59v.48h-11.24c-.42-.73-.79-1.69-1.03-3.38Zm.06-7.8v-2.72c-1.09,.54-2.48,1.03-4.41,1.45-3.32,.73-4.35,1.69-4.35,3.51,0,2.06,1.69,2.96,3.57,2.96,2.66,0,5.2-1.51,5.2-5.2Z"/><path d="M269.55,25.66h.18c2.48-3.87,5.44-5.32,9.37-5.32,.91,0,1.51,.12,1.87,.3v9.73h-.24c-6.71-1.15-10.64,1.87-10.64,8.82v12.63h-11.42V21h10.88v4.65Z"/><path d="M282.66,21h3.99V11.03h11.18v9.97h5.86v6.89h-5.86v12.51c0,3.08,2.18,3.14,5.74,2.9v8.4c-1.75,.42-3.57,.73-5.62,.73-7.49,0-11.3-2.12-11.3-9.49v-15.05h-3.99v-6.89Z"/><path d="M309.25,53.22h3.81c2.54,0,3.57-.67,3.57-2.3,0-.97-.67-2.6-1.39-4.41l-9.85-25.51h12.03l3.81,12.39c.97,3.14,1.81,7.49,1.81,7.49h.12s.91-4.35,1.87-7.49l3.75-12.39h11.36l-10.52,30.82c-2.6,7.62-6.23,10.21-12.45,10.21h-7.92v-8.82Z"/><path d="M353.91,26.93h9.01v-9.91h10.58v9.91h9.01v9.85h-9.01v10.03h-10.58v-10.03h-9.01v-9.85Z"/><path d="M398.74,8.61h11.73V51.83h-11.73V8.61Z"/><path d="M414.57,8.61h11.42v8.64h-11.42V8.61Zm0,12.39h11.42v30.82h-11.42V21Z"/><path d="M429.44,52.37h11c.42,1.27,1.87,2.6,4.59,2.6,3.69,0,4.96-2.18,4.96-5.38v-2.78h-.24c-1.81,2.06-4.23,3.51-7.8,3.51-7.01,0-13.12-4.9-13.12-14.57,0-8.82,5.02-15.71,12.57-15.71,4.35,0,7.01,1.69,8.76,4.35h.18v-3.38h10.88v27.14c0,4.96-1.81,8.76-4.53,11.06-2.84,2.42-6.89,3.38-11.48,3.38-8.64,0-14.69-3.38-15.77-10.21Zm21.03-17.1c0-3.87-1.93-6.95-5.26-6.95s-5.26,2.78-5.26,6.95,2.05,7.07,5.26,7.07,5.26-3.02,5.26-7.07Z"/><path d="M476.77,24.51h.18c2.3-2.66,5.08-4.47,9.37-4.47,7.13,0,10.82,4.77,10.82,11.85v19.95h-11.42v-17.17c0-3.2-1.33-5.32-4.29-5.32s-4.65,2.54-4.65,5.86v16.62h-11.42V8.61h11.42v15.9Z"/><path d="M498.77,21h3.99V11.03h11.18v9.97h5.86v6.89h-5.86v12.51c0,3.08,2.18,3.14,5.74,2.9v8.4c-1.75,.42-3.57,.73-5.62,.73-7.49,0-11.3-2.12-11.3-9.49v-15.05h-3.99v-6.89Z"/><path d="M532.42,41.85h10.94c.18,2.54,1.75,4.05,4.65,4.05,2.24,0,3.93-.79,3.93-2.66,0-2.54-3.57-2.84-7.55-3.44-5.2-.79-11.18-2.18-11.18-9.91,0-6.35,6.47-9.85,14.02-9.85,9.37,0,14.26,3.51,14.69,9.55h-10.76c-.3-2.3-2-2.78-3.87-2.78-1.69,0-3.26,.66-3.26,2.24,0,1.75,2.84,2.12,6.35,2.6,5.62,.79,12.75,2.06,12.75,10.64,0,7.37-6.71,10.58-15.17,10.58-9.13,0-15.47-3.93-15.53-11Z"/><path d="M577.26,24.51h.18c2.3-2.66,5.08-4.47,9.37-4.47,7.13,0,10.82,4.77,10.82,11.85v19.95h-11.42v-17.17c0-3.2-1.33-5.32-4.29-5.32s-4.65,2.54-4.65,5.86v16.62h-11.42V8.61h11.42v15.9Z"/><path d="M600.23,36.48c0-9.37,6.65-16.38,16.92-16.38s16.8,7.01,16.8,16.38-6.53,16.32-16.8,16.32-16.92-6.95-16.92-16.32Zm22.12,0c0-5.2-1.81-8.7-5.32-8.7s-5.2,3.51-5.2,8.7,1.69,8.7,5.2,8.7,5.32-3.51,5.32-8.7Z"/><path d="M633.11,21h11.79l3.02,11.18c.67,2.42,1.45,6.17,1.45,6.17h.12s.79-3.81,1.45-6.41l2.66-10.94h9.67l2.66,10.94c.67,2.66,1.45,6.53,1.45,6.53h.12s.91-3.87,1.51-6.29l2.96-11.18h11.54l-9.79,30.82h-11l-3.14-12.81c-.6-2.36-1.27-5.74-1.27-5.74h-.12s-.66,3.38-1.27,5.74l-3.14,12.81h-10.82l-9.85-30.82Z"/><path d="M9.91,100.3H1.45v-8.28c5.98-.24,10.33-3.57,11.54-9.43h9.01v41.76H9.91v-24.06Z"/><path d="M35.3,100.3h-8.46v-8.28c5.98-.24,10.33-3.57,11.54-9.43h9.01v41.76h-12.09v-24.06Z"/><path d="M52.82,93.53h10.88v3.63h.18c2.24-2.9,5.38-4.59,9.61-4.59,8.28,0,13.06,7.37,13.06,16.32,0,10.09-5.32,16.5-13.54,16.5-3.69,0-6.53-1.39-8.58-3.93h-.18v13.12h-11.42v-41.04Zm22.12,15.83c0-4.71-1.93-7.68-5.32-7.68s-5.8,3.26-5.8,7.68,2.3,7.62,5.8,7.62,5.32-2.9,5.32-7.62Z"/><path d="M89.39,93.53h10.88v4.59h.18c2.18-3.57,5.14-5.56,9.79-5.56,4.11,0,7.19,1.99,8.76,5.38h.18c2.66-4.11,6.1-5.38,10.09-5.38,7.56,0,10.82,5.32,10.82,12.39v19.4h-11.42v-17.29c0-3.14-1.03-5.2-3.93-5.2s-4.29,2.54-4.29,5.86v16.62h-11.42v-17.29c0-3.14-1.03-5.2-3.93-5.2s-4.29,2.54-4.29,5.86v16.62h-11.42v-30.82Z"/><path d="M143.67,104.05h16.5v9.85h-16.5v-9.85Z"/><path d="M183.07,115.05h-19.46v-9.85l19.52-22.6h11.67v23.57h5.68v8.88h-5.68v9.31h-11.73v-9.31Zm-10.76-8.88h10.76v-12.39h-.12l-10.64,12.27v.12Z"/><path d="M221.81,120.97h-.12c-2.06,2.84-5.32,4.17-9.31,4.17-5.92,0-10.27-3.2-10.27-9.25,0-6.83,5.26-8.82,11.18-9.49,6.53-.73,8.28-1.51,8.28-3.45,0-1.69-.79-2.96-3.26-2.96s-3.75,1.45-4.05,3.69h-10.82c.24-6.1,4.96-11.12,14.63-11.12,4.71,0,7.74,.6,10.09,2.06,3.2,1.99,4.77,5.14,4.77,9.25v15.41c0,2.6,.18,3.99,1.15,4.59v.48h-11.24c-.42-.73-.79-1.69-1.03-3.38Zm.06-7.8v-2.72c-1.09,.54-2.48,1.03-4.41,1.45-3.32,.73-4.35,1.69-4.35,3.51,0,2.06,1.69,2.96,3.57,2.96,2.66,0,5.2-1.51,5.2-5.2Z"/><path d="M237.29,93.53h10.88v4.59h.18c2.18-3.57,5.14-5.56,9.79-5.56,4.11,0,7.19,1.99,8.76,5.38h.18c2.66-4.11,6.1-5.38,10.09-5.38,7.56,0,10.82,5.32,10.82,12.39v19.4h-11.42v-17.29c0-3.14-1.03-5.2-3.93-5.2s-4.29,2.54-4.29,5.86v16.62h-11.42v-17.29c0-3.14-1.03-5.2-3.93-5.2s-4.29,2.54-4.29,5.86v16.62h-11.42v-30.82Z"/><path d="M291.62,130.52c3.51-.36,5.08-3.02,5.08-6.17h-5.2v-11.54h11.79v10.46c0,4.47-1.03,7.13-3.02,9.25-2.12,2.24-5.2,3.45-8.64,3.38v-5.38Z"/><path d="M353.58,103.75c0-13.12,8.1-21.64,19.28-21.64s19.4,8.52,19.4,21.64-8.22,21.58-19.4,21.58-19.28-8.4-19.28-21.58Zm26.29,0c0-7.37-1.93-12.81-6.95-12.81s-6.95,5.44-6.95,12.81,1.93,12.63,6.95,12.63,6.95-5.2,6.95-12.63Z"/><path d="M393.47,111.6h11.79c.66,2.9,3.2,4.47,6.23,4.47,3.57,0,5.8-2.42,5.8-6.35,0-3.57-2.24-5.98-5.86-5.98-2.18,0-4.11,1.03-5.08,2.48h-11.18l4.41-23.27h26.96v9.49h-18.07l-1.33,5.8h.12c1.21-1.15,3.81-2.36,7.49-2.36,8.58,0,14.57,5.44,14.57,13.96,0,9.73-6.71,15.53-17.53,15.53-9.73,0-17.23-4.17-18.31-13.78Z"/><path d="M432.33,104.05h16.5v9.85h-16.5v-9.85Z"/><path d="M458.08,100.3h-8.46v-8.28c5.98-.24,10.33-3.57,11.54-9.43h9.01v41.76h-12.09v-24.06Z"/><path d="M479.29,112.03c4.05-3.69,10.03-7.56,14.57-10.64,2.3-1.57,3.63-3.26,3.63-5.5,0-2.6-1.69-4.29-4.96-4.29-1.99,0-3.38,.54-4.35,1.81-1.09,1.39-1.57,2.96-1.57,5.68h-11.36c0-4.9,.48-7.01,2.05-9.79,2.3-4.11,7.56-7.19,15.47-7.19,11,0,16.62,5.74,16.62,13.3,0,3.69-1.03,6.65-3.38,8.94-4.11,3.99-9.37,6.41-13.78,9.91v.12h16.92v9.97h-34.57c0-5.92,1.21-9.13,4.71-12.33Z"/><path d="M512.42,104.05h16.5v9.85h-16.5v-9.85Z"/><path d="M535.81,112.03c4.05-3.69,10.03-7.56,14.57-10.64,2.3-1.57,3.63-3.26,3.63-5.5,0-2.6-1.69-4.29-4.96-4.29-2,0-3.38,.54-4.35,1.81-1.09,1.39-1.57,2.96-1.57,5.68h-11.36c0-4.9,.48-7.01,2.05-9.79,2.3-4.11,7.56-7.19,15.47-7.19,11,0,16.62,5.74,16.62,13.3,0,3.69-1.03,6.65-3.38,8.94-4.11,3.99-9.37,6.41-13.78,9.91v.12h16.92v9.97h-34.57c0-5.92,1.21-9.13,4.71-12.33Z"/><path d="M568.81,103.75c0-13.12,8.1-21.64,19.28-21.64s19.4,8.52,19.4,21.64-8.22,21.58-19.4,21.58-19.28-8.4-19.28-21.58Zm26.29,0c0-7.37-1.93-12.81-6.95-12.81s-6.95,5.44-6.95,12.81,1.93,12.63,6.95,12.63,6.95-5.2,6.95-12.63Z"/><path d="M613.65,112.03c4.05-3.69,10.03-7.56,14.57-10.64,2.3-1.57,3.63-3.26,3.63-5.5,0-2.6-1.69-4.29-4.96-4.29-2,0-3.38,.54-4.35,1.81-1.09,1.39-1.57,2.96-1.57,5.68h-11.36c0-4.9,.48-7.01,2.05-9.79,2.3-4.11,7.56-7.19,15.47-7.19,11,0,16.62,5.74,16.62,13.3,0,3.69-1.03,6.65-3.38,8.94-4.11,3.99-9.37,6.41-13.78,9.91v.12h16.92v9.97h-34.57c0-5.92,1.21-9.13,4.71-12.33Z"/><path d="M650.88,121.64c-3.38-2.72-5.14-6.77-5.14-11.79h11.42c.12,3.81,2.3,6.53,7.01,6.53,3.81,0,5.68-2.12,5.68-4.71,0-3.26-2.6-4.53-6.53-4.53h-2.42v-7.86h2.06c3.81,0,6.16-1.39,6.16-4.23,0-2.42-1.81-3.99-5.02-3.99-4.17,0-5.68,2.54-5.98,5.32h-11.12c0-8.22,6.35-14.26,17.29-14.26,9.67,0,16.56,4.41,16.56,12.15,0,3.87-2.24,6.29-5.56,7.86v.12c3.81,1.57,6.65,4.59,6.65,9.97,0,9.19-8.34,13.18-17.23,13.18-6.29,0-10.7-1.21-13.84-3.75Z"/><path d="M.42,166.06h3.99v-9.97H15.59v9.97h5.86v6.89h-5.86v12.51c0,3.08,2.18,3.14,5.74,2.9v8.4c-1.75,.42-3.57,.73-5.62,.73-7.49,0-11.3-2.12-11.3-9.49v-15.05H.42v-6.89Z"/><path d="M35.3,170.71h.18c2.48-3.87,5.44-5.32,9.37-5.32,.91,0,1.51,.12,1.87,.3v9.73h-.24c-6.71-1.15-10.64,1.87-10.64,8.82v12.63h-11.42v-30.82h10.88v4.65Z"/><path d="M67.15,193.5h-.12c-2.06,2.84-5.32,4.17-9.31,4.17-5.92,0-10.27-3.2-10.27-9.25,0-6.83,5.26-8.82,11.18-9.49,6.53-.73,8.28-1.51,8.28-3.45,0-1.69-.79-2.96-3.26-2.96s-3.75,1.45-4.05,3.69h-10.82c.24-6.1,4.96-11.12,14.63-11.12,4.71,0,7.74,.6,10.09,2.06,3.2,1.99,4.77,5.14,4.77,9.25v15.41c0,2.6,.18,3.99,1.15,4.59v.48h-11.24c-.42-.73-.79-1.69-1.03-3.38Zm.06-7.8v-2.72c-1.09,.54-2.48,1.03-4.41,1.45-3.32,.73-4.35,1.69-4.35,3.51,0,2.06,1.69,2.96,3.57,2.96,2.66,0,5.2-1.51,5.2-5.2Z"/><path d="M93.5,170.29h.18c2.48-3.38,5.62-5.2,9.91-5.2,7.13,0,10.82,4.77,10.82,11.85v19.95h-11.42v-17.17c0-3.2-1.33-5.32-4.29-5.32s-4.65,2.54-4.65,5.86v16.62h-11.42v-30.82h10.88v4.23Z"/><path d="M116.47,186.91h10.94c.18,2.54,1.75,4.05,4.65,4.05,2.24,0,3.93-.79,3.93-2.66,0-2.54-3.57-2.84-7.55-3.44-5.2-.79-11.18-2.18-11.18-9.91,0-6.35,6.47-9.85,14.02-9.85,9.37,0,14.26,3.51,14.69,9.55h-10.76c-.3-2.3-1.99-2.78-3.87-2.78-1.69,0-3.26,.66-3.26,2.24,0,1.75,2.84,2.12,6.35,2.6,5.62,.79,12.75,2.06,12.75,10.64,0,7.37-6.71,10.58-15.17,10.58-9.13,0-15.47-3.93-15.53-11Z"/><path d="M149.59,176.57h16.5v9.85h-16.5v-9.85Z"/><path d="M169.89,166.06h10.88v3.63h.18c2.24-2.9,5.38-4.59,9.61-4.59,8.28,0,13.05,7.37,13.05,16.32,0,10.09-5.32,16.5-13.54,16.5-3.69,0-6.53-1.39-8.58-3.93h-.18v13.12h-11.42v-41.04Zm22.12,15.83c0-4.71-1.93-7.68-5.32-7.68s-5.8,3.26-5.8,7.68,2.3,7.62,5.8,7.62,5.32-2.9,5.32-7.62Z"/><path d="M205.19,181.41c0-9.31,6.71-16.38,16.44-16.38,4.83,0,8.52,1.57,11.36,4.17,3.75,3.45,5.5,8.95,5.38,15.05h-22c.66,3.57,2.6,5.74,6.04,5.74,1.99,0,3.44-.79,4.29-2.3h11.06c-.66,2.78-2.84,5.5-5.86,7.43-2.84,1.81-5.92,2.6-9.85,2.6-10.09,0-16.86-6.89-16.86-16.32Zm11.18-3.2h10.64c-.48-3.45-2.42-5.5-5.14-5.5-3.14,0-4.9,2.12-5.5,5.5Z"/><path d="M239.94,181.53c0-9.37,6.77-16.38,16.92-16.38,8.7,0,14.51,5.14,15.29,12.33h-11c-.6-2.78-1.93-4.35-4.41-4.35-3.51,0-5.2,3.2-5.2,8.4s1.81,8.28,5.32,8.28c2.78,0,4.17-1.87,4.47-5.38h11c0,7.62-6.23,13.42-15.47,13.42-10.15,0-16.92-6.95-16.92-16.32Z"/><path d="M273.73,181.53c0-9.37,6.65-16.38,16.92-16.38s16.8,7.01,16.8,16.38-6.53,16.32-16.8,16.32-16.92-6.95-16.92-16.32Zm22.12,0c0-5.2-1.81-8.7-5.32-8.7s-5.2,3.51-5.2,8.7,1.69,8.7,5.2,8.7,5.32-3.51,5.32-8.7Z"/><path d="M308.48,186.91h10.94c.18,2.54,1.75,4.05,4.65,4.05,2.24,0,3.93-.79,3.93-2.66,0-2.54-3.57-2.84-7.55-3.44-5.2-.79-11.18-2.18-11.18-9.91,0-6.35,6.47-9.85,14.02-9.85,9.37,0,14.26,3.51,14.69,9.55h-10.76c-.3-2.3-1.99-2.78-3.87-2.78-1.69,0-3.26,.66-3.26,2.24,0,1.75,2.84,2.12,6.35,2.6,5.62,.79,12.75,2.06,12.75,10.64,0,7.37-6.71,10.58-15.17,10.58-9.13,0-15.47-3.93-15.53-11Z"/><path d="M341.96,203.05c3.51-.36,5.08-3.02,5.08-6.17h-5.2v-11.54h11.79v10.46c0,4.47-1.03,7.13-3.02,9.25-2.12,2.24-5.2,3.45-8.64,3.38v-5.38Z"/><path d="M394.13,170.71h.18c2.48-3.87,5.44-5.32,9.37-5.32,.91,0,1.51,.12,1.87,.3v9.73h-.24c-6.71-1.15-10.64,1.87-10.64,8.82v12.63h-11.42v-30.82h10.88v4.65Z"/><path d="M408.28,153.67h11.42v8.64h-11.42v-8.64Zm0,12.39h11.42v30.82h-11.42v-30.82Z"/><path d="M422.54,181.41c0-9.67,5.56-16.32,13.78-16.32,4.41,0,6.59,1.63,8.58,4.23h.18v-15.65h11.42v43.21h-10.88v-4.29h-.12c-1.99,3.44-5.26,5.32-9.07,5.32-7.98,0-13.9-5.86-13.9-16.5Zm22.85-.18c0-4.41-2.3-7.92-5.68-7.92s-5.56,3.2-5.56,7.92,2.18,8.04,5.56,8.04,5.68-3.57,5.68-8.04Z"/><path d="M459.95,197.43h11c.42,1.27,1.87,2.6,4.59,2.6,3.69,0,4.96-2.18,4.96-5.38v-2.78h-.24c-1.81,2.06-4.23,3.51-7.8,3.51-7.01,0-13.12-4.9-13.12-14.57,0-8.82,5.02-15.71,12.57-15.71,4.35,0,7.01,1.69,8.76,4.35h.18v-3.38h10.88v27.14c0,4.96-1.81,8.76-4.53,11.06-2.84,2.42-6.89,3.38-11.48,3.38-8.64,0-14.69-3.38-15.77-10.21Zm21.03-17.1c0-3.87-1.93-6.95-5.26-6.95s-5.26,2.78-5.26,6.95,2.05,7.07,5.26,7.07,5.26-3.02,5.26-7.07Z"/><path d="M494.58,181.41c0-9.31,6.71-16.38,16.44-16.38,4.83,0,8.52,1.57,11.36,4.17,3.75,3.45,5.5,8.95,5.38,15.05h-22c.67,3.57,2.6,5.74,6.04,5.74,2,0,3.45-.79,4.29-2.3h11.06c-.67,2.78-2.84,5.5-5.86,7.43-2.84,1.81-5.92,2.6-9.85,2.6-10.09,0-16.86-6.89-16.86-16.32Zm11.18-3.2h10.64c-.48-3.45-2.42-5.5-5.14-5.5-3.14,0-4.9,2.12-5.5,5.5Z"/><path d="M526.92,166.06h11.79l3.02,11.18c.67,2.42,1.45,6.17,1.45,6.17h.12s.79-3.81,1.45-6.41l2.66-10.94h9.67l2.66,10.94c.67,2.66,1.45,6.53,1.45,6.53h.12s.91-3.87,1.51-6.29l2.96-11.18h11.54l-9.79,30.82h-11l-3.14-12.81c-.6-2.36-1.27-5.74-1.27-5.74h-.12s-.66,3.38-1.27,5.74l-3.14,12.81h-10.82l-9.85-30.82Z"/><path d="M576.48,181.53c0-9.37,6.65-16.38,16.92-16.38s16.8,7.01,16.8,16.38-6.53,16.32-16.8,16.32-16.92-6.95-16.92-16.32Zm22.12,0c0-5.2-1.81-8.7-5.32-8.7s-5.2,3.51-5.2,8.7,1.69,8.7,5.2,8.7,5.32-3.51,5.32-8.7Z"/><path d="M611.78,181.53c0-9.37,6.65-16.38,16.92-16.38s16.8,7.01,16.8,16.38-6.53,16.32-16.8,16.32-16.92-6.95-16.92-16.32Zm22.12,0c0-5.2-1.81-8.7-5.32-8.7s-5.2,3.51-5.2,8.7,1.69,8.7,5.2,8.7,5.32-3.51,5.32-8.7Z"/><path d="M647.07,181.41c0-9.67,5.56-16.32,13.78-16.32,4.41,0,6.59,1.63,8.58,4.23h.18v-15.65h11.42v43.21h-10.88v-4.29h-.12c-1.99,3.44-5.26,5.32-9.07,5.32-7.98,0-13.9-5.86-13.9-16.5Zm22.85-.18c0-4.41-2.3-7.92-5.68-7.92s-5.56,3.2-5.56,7.92,2.18,8.04,5.56,8.04,5.68-3.57,5.68-8.04Z"/></g></g></svg>