<?xml version="1.0" encoding="UTF-8"?><svg id="b" xmlns="http://www.w3.org/2000/svg" width="618.67" height="128.09" viewBox="0 0 618.67 128.09"><g id="c"><g><path d="M0,0H30.29l7.53,35.5c2.46,11.3,5.07,28.84,5.07,28.84h.29s2.75-15.5,5.36-27.39L56.51,0h27.39l7.97,36.66c2.61,12.03,5.22,27.68,5.22,27.68h.29s2.75-17.53,5.22-29.13L110.13,0h31.01l-27.24,103.61h-30.58l-9.27-43.91c-1.88-8.98-3.62-20.14-3.62-20.14h-.29s-1.74,11.16-3.62,20.14l-8.98,43.91H26.52L0,0Z"/><path d="M132.88,66.8c0-22.46,15.94-39.27,40.57-39.27s40.28,16.81,40.28,39.27-15.65,39.12-40.28,39.12-40.57-16.66-40.57-39.12Zm53.03,0c0-12.46-4.35-20.87-12.75-20.87s-12.46,8.4-12.46,20.87,4.06,20.87,12.46,20.87,12.75-8.4,12.75-20.87Z"/><path d="M246.63,40.86h.43c5.94-9.27,13.04-12.75,22.46-12.75,2.17,0,3.62,.29,4.49,.72v23.33h-.58c-16.08-2.75-25.5,4.49-25.5,21.16v30.28h-27.39V29.71h26.08v11.16Z"/><path d="M313.13,77.09l-5.65,6.23v20.29h-26.95V0h26.95V51.73l17.82-22.03h30.72l-24.63,27.24,27.53,46.66h-31.01l-14.78-26.52Z"/><path d="M352.92,0h89.26V25.79h-29.71V103.61h-30.29V25.79h-29.27V0Z"/><path d="M466.67,40.86h.44c5.94-9.27,13.04-12.75,22.46-12.75,2.17,0,3.62,.29,4.49,.72v23.33h-.58c-16.08-2.75-25.5,4.49-25.5,21.16v30.28h-27.39V29.71h26.08v11.16Z"/><path d="M500.58,0h27.39V20.72h-27.39V0Zm0,29.71h27.39V103.61h-27.39V29.71Z"/><path d="M537.82,29.71h26.08v8.69h.44c5.36-6.96,12.9-11.01,23.04-11.01,19.85,0,31.3,17.68,31.3,39.12,0,24.2-12.75,39.56-32.46,39.56-8.84,0-15.65-3.33-20.58-9.42h-.44v31.44h-27.39V29.71Zm53.04,37.97c0-11.3-4.64-18.4-12.75-18.4s-13.91,7.82-13.91,18.4,5.51,18.26,13.91,18.26,12.75-6.96,12.75-18.26Z"/></g></g></svg>